<?xml version="1.0" encoding="UTF-8" standalone="no"?>
<!-- Created with Inkscape (http://www.inkscape.org/) -->

<svg
   xmlns:dc="http://purl.org/dc/elements/1.1/"
   xmlns:cc="http://creativecommons.org/ns#"
   xmlns:rdf="http://www.w3.org/1999/02/22-rdf-syntax-ns#"
   xmlns:svg="http://www.w3.org/2000/svg"
   xmlns="http://www.w3.org/2000/svg"
   xmlns:sodipodi="http://sodipodi.sourceforge.net/DTD/sodipodi-0.dtd"
   xmlns:inkscape="http://www.inkscape.org/namespaces/inkscape"
   version="1.1"
   id="svg2"
   xml:space="preserve"
   width="23.839867"
   height="48"
   viewBox="0 0 23.839867 48"
   sodipodi:docname="blitzIcon.svg"
   inkscape:version="0.92.3 (2405546, 2018-03-11)"><metadata
     id="metadata8"><rdf:RDF><cc:Work
         rdf:about=""><dc:format>image/svg+xml</dc:format><dc:type
           rdf:resource="http://purl.org/dc/dcmitype/StillImage" /><dc:title></dc:title></cc:Work></rdf:RDF></metadata><defs
     id="defs6"><clipPath
       clipPathUnits="userSpaceOnUse"
       id="clipPath18"><path
         d="M 0,36 H 17.88 V 0 H 0 Z"
         id="path16"
         inkscape:connector-curvature="0" /></clipPath></defs><sodipodi:namedview
     pagecolor="#ffffff"
     bordercolor="#666666"
     borderopacity="1"
     objecttolerance="10"
     gridtolerance="10"
     guidetolerance="10"
     inkscape:pageopacity="0"
     inkscape:pageshadow="2"
     inkscape:window-width="640"
     inkscape:window-height="480"
     id="namedview4"
     showgrid="false"
     inkscape:zoom="4.9166667"
     inkscape:cx="11.919933"
     inkscape:cy="24"
     inkscape:window-x="0"
     inkscape:window-y="0"
     inkscape:window-maximized="0"
     inkscape:current-layer="g10" /><g
     id="g10"
     inkscape:groupmode="layer"
     inkscape:label="Vector Smart Object2"
     transform="matrix(1.3333333,0,0,-1.3333333,0,48)"><g
       id="g12"><g
         id="g14"
         clip-path="url(#clipPath18)"><g
           id="g20"
           transform="translate(17.04,26.8179)"><path
             d="M 0,0 C 0.239,0 0.439,-0.08 0.599,-0.239 0.76,-0.397 0.84,-0.62 0.84,-0.898 0.84,-1.059 0.818,-1.179 0.779,-1.259 l -10.8,-25.019 c -0.12,-0.359 -0.401,-0.54 -0.84,-0.54 -0.24,0 -0.44,0.081 -0.598,0.239 -0.203,0.201 -0.301,0.42 -0.301,0.662 0,0.078 0.02,0.139 0.059,0.178 L -7.8,-8.217 -8.701,-8.518 c -0.8,-0.2 -1.32,-0.341 -1.56,-0.42 l -1.86,-0.48 -1.86,-0.54 c -0.559,-0.161 -1.04,-0.281 -1.438,-0.361 -0.281,-0.081 -0.522,-0.12 -0.721,-0.12 -0.28,0 -0.5,0.081 -0.661,0.242 -0.159,0.158 -0.239,0.378 -0.239,0.659 0,0.08 0.019,0.139 0.061,0.181 l 3.959,17.819 c 0.04,0.159 0.159,0.339 0.359,0.539 0.12,0.12 0.301,0.181 0.54,0.181 h 6.54 c 0.279,0 0.481,-0.08 0.601,-0.242 0.2,-0.2 0.3,-0.419 0.3,-0.659 0,-0.08 -0.022,-0.141 -0.061,-0.18 v -0.24 l -3.479,-10.019 0.899,0.24 c 0.2,0.039 0.42,0.1 0.661,0.18 0.24,0.078 0.54,0.159 0.899,0.239 l 1.802,0.54 1.799,0.48 1.44,0.36 z"
             style="fill:#848485;fill-opacity:1;fill-rule:nonzero;stroke:none"
             id="path22"
             inkscape:connector-curvature="0" /></g></g></g></g></svg>