<?xml version="1.0" encoding="UTF-8" standalone="no"?>
<!-- Created with Inkscape (http://www.inkscape.org/) -->

<svg
   xmlns:dc="http://purl.org/dc/elements/1.1/"
   xmlns:cc="http://creativecommons.org/ns#"
   xmlns:rdf="http://www.w3.org/1999/02/22-rdf-syntax-ns#"
   xmlns:svg="http://www.w3.org/2000/svg"
   xmlns="http://www.w3.org/2000/svg"
   xmlns:sodipodi="http://sodipodi.sourceforge.net/DTD/sodipodi-0.dtd"
   xmlns:inkscape="http://www.inkscape.org/namespaces/inkscape"
   version="1.1"
   id="svg2"
   xml:space="preserve"
   width="45.035198"
   height="48"
   viewBox="0 0 45.035198 48"
   sodipodi:docname="cupIcon.svg"
   inkscape:version="0.92.3 (2405546, 2018-03-11)"><metadata
     id="metadata8"><rdf:RDF><cc:Work
         rdf:about=""><dc:format>image/svg+xml</dc:format><dc:type
           rdf:resource="http://purl.org/dc/dcmitype/StillImage" /><dc:title></dc:title></cc:Work></rdf:RDF></metadata><defs
     id="defs6"><clipPath
       clipPathUnits="userSpaceOnUse"
       id="clipPath18"><path
         d="M 0,36 H 33.776 V 0 H 0 Z"
         id="path16"
         inkscape:connector-curvature="0" /></clipPath></defs><sodipodi:namedview
     pagecolor="#ffffff"
     bordercolor="#666666"
     borderopacity="1"
     objecttolerance="10"
     gridtolerance="10"
     guidetolerance="10"
     inkscape:pageopacity="0"
     inkscape:pageshadow="2"
     inkscape:window-width="640"
     inkscape:window-height="480"
     id="namedview4"
     showgrid="false"
     inkscape:zoom="4.9166667"
     inkscape:cx="22.517599"
     inkscape:cy="24"
     inkscape:window-x="0"
     inkscape:window-y="0"
     inkscape:window-maximized="0"
     inkscape:current-layer="g10" /><g
     id="g10"
     inkscape:groupmode="layer"
     inkscape:label="Vector Smart Object1"
     transform="matrix(1.3333333,0,0,-1.3333333,0,48)"><g
       id="g12"><g
         id="g14"
         clip-path="url(#clipPath18)"><g
           id="g20"
           transform="translate(28.5376,22.2969)"><path
             d="M 0,0 C -0.022,0 -0.043,0.003 -0.065,0.003 -0.024,0.371 0,0.743 0,1.122 V 6 C 1.655,6 3,4.654 3,3 3,1.345 1.655,0 0,0 m -26.301,3 c 0,1.654 1.344,3 2.999,3 0.014,0 0.027,-0.002 0.04,-0.002 V 1.122 10e-4 c -0.013,0 -0.026,-0.001 -0.04,-0.001 -1.655,0 -2.999,1.345 -2.999,3 M 0.011,8.228 v 0.594 c 0,0.313 -0.048,0.616 -0.137,0.9 0.715,0.333 1.217,1.054 1.217,1.892 0,1.149 -0.94,2.089 -2.09,2.089 h -5.251 -1.779 -3.335 -10.714 -0.175 c -1.149,0 -2.089,-0.94 -2.089,-2.089 0,-0.838 0.502,-1.559 1.217,-1.892 -0.005,-0.018 -0.009,-0.037 -0.014,-0.055 h -0.123 V 8.822 8.226 c -0.015,0 -0.03,0.002 -0.047,0.002 -2.883,0 -5.229,-2.345 -5.229,-5.228 0,-2.883 2.346,-5.229 5.229,-5.229 0.076,0 0.15,0.009 0.225,0.012 0.15,-0.522 0.397,-1.004 0.715,-1.428 1.48,-3.542 4.665,-6.21 8.516,-6.965 h -0.631 c -0.428,0 -0.778,-0.349 -0.778,-0.777 v -0.875 c 0,-0.428 0.35,-0.778 0.778,-0.778 h 0.148 c -0.369,-2.136 -1.357,-5.042 -4.007,-5.969 -1.11,-0.388 -1.843,-1.451 -1.843,-2.628 v -0.66 h 8.561 8.561 v 0.66 c 0,1.177 -0.734,2.24 -1.844,2.628 -2.65,0.927 -3.638,3.833 -4.006,5.969 h 0.043 c 0.428,0 0.778,0.35 0.778,0.778 v 0.875 c 0,0.428 -0.35,0.777 -0.778,0.777 h -0.526 c 4.355,0.855 7.858,4.156 9.006,8.402 0.133,-0.011 0.266,-0.021 0.402,-0.021 2.883,0 5.228,2.346 5.228,5.229 0,2.883 -2.345,5.228 -5.228,5.228"
             style="fill:#848485;fill-opacity:1;fill-rule:nonzero;stroke:none"
             id="path22"
             inkscape:connector-curvature="0" /></g></g></g></g></svg>