<?xml version="1.0" encoding="UTF-8" standalone="no"?>
<!-- Created with Inkscape (http://www.inkscape.org/) -->

<svg
   xmlns:dc="http://purl.org/dc/elements/1.1/"
   xmlns:cc="http://creativecommons.org/ns#"
   xmlns:rdf="http://www.w3.org/1999/02/22-rdf-syntax-ns#"
   xmlns:svg="http://www.w3.org/2000/svg"
   xmlns="http://www.w3.org/2000/svg"
   xmlns:sodipodi="http://sodipodi.sourceforge.net/DTD/sodipodi-0.dtd"
   xmlns:inkscape="http://www.inkscape.org/namespaces/inkscape"
   version="1.1"
   id="svg2"
   xml:space="preserve"
   width="48.465466"
   height="48"
   viewBox="0 0 48.465466 48"
   sodipodi:docname="pawnIcon.svg"
   inkscape:version="0.92.3 (2405546, 2018-03-11)"><metadata
     id="metadata8"><rdf:RDF><cc:Work
         rdf:about=""><dc:format>image/svg+xml</dc:format><dc:type
           rdf:resource="http://purl.org/dc/dcmitype/StillImage" /><dc:title></dc:title></cc:Work></rdf:RDF></metadata><defs
     id="defs6"><clipPath
       clipPathUnits="userSpaceOnUse"
       id="clipPath18"><path
         d="M 0,36 H 36.349 V 0 H 0 Z"
         id="path16"
         inkscape:connector-curvature="0" /></clipPath></defs><sodipodi:namedview
     pagecolor="#ffffff"
     bordercolor="#666666"
     borderopacity="1"
     objecttolerance="10"
     gridtolerance="10"
     guidetolerance="10"
     inkscape:pageopacity="0"
     inkscape:pageshadow="2"
     inkscape:window-width="640"
     inkscape:window-height="480"
     id="namedview4"
     showgrid="false"
     inkscape:zoom="4.9166667"
     inkscape:cx="24.232733"
     inkscape:cy="24"
     inkscape:window-x="0"
     inkscape:window-y="0"
     inkscape:window-maximized="0"
     inkscape:current-layer="g10" /><g
     id="g10"
     inkscape:groupmode="layer"
     inkscape:label="Vector Smart Object"
     transform="matrix(1.3333333,0,0,-1.3333333,0,48)"><g
       id="g12"><g
         id="g14"
         clip-path="url(#clipPath18)"><g
           id="g20"
           transform="translate(2.1089,16.8618)"><path
             d="m 0,0 h 0.393 c 1.164,0 2.108,0.945 2.108,2.11 0,1.164 -0.944,2.109 -2.108,2.109 L 0,4.219 C -1.165,4.219 -2.109,3.274 -2.109,2.11 -2.109,0.945 -1.165,0 0,0"
             style="fill:#848485;fill-opacity:1;fill-rule:nonzero;stroke:none"
             id="path22"
             inkscape:connector-curvature="0" /></g><g
           id="g24"
           transform="translate(16.894,4.269)"><path
             d="m 0,0 h -4.393 c -1.164,0 -2.108,0.945 -2.108,2.11 0,1.164 0.944,2.109 2.108,2.109 L 0,4.219 C 1.164,4.219 2.109,3.274 2.109,2.11 2.109,0.945 1.164,0 0,0 m 15.606,4.349 c -5.45,3.422 -5.922,7.7 -6.078,9.404 h 3.065 0.363 l 0.171,0.318 0.12,0.219 c 0.366,0.669 0.607,1.111 0.607,2.104 v 0.328 l -0.273,0.179 -3.618,2.387 c 1.667,1.32 2.648,3.33 2.648,5.471 0,3.845 -3.129,6.972 -6.974,6.972 -3.845,0 -6.972,-3.127 -6.972,-6.972 0,-2.141 0.981,-4.151 2.649,-5.471 l -3.618,-2.387 -0.135,-0.089 h -5.908 c -1.164,0 -2.109,-0.945 -2.109,-2.109 0,-1.165 0.945,-2.11 2.109,-2.11 h 2.548 c 1.165,0 2.109,-0.945 2.109,-2.11 0,-1.164 -0.944,-2.109 -2.109,-2.109 h -5.766 c -1.165,0 -2.11,-0.945 -2.11,-2.109 0,-1.165 0.945,-2.046 2.11,-2.046 l 1.004,-0.005 c 1.142,-0.03 2.059,-1.022 2.059,-2.169 0,-1.165 -0.945,-2.035 -2.11,-2.035 h -4.173 c -1.164,0 -2.109,-0.946 -2.109,-2.11 0,-1.165 0.945,-2.169 2.109,-2.169 h 6.605 0.609 2.585 23.833 0.608 v 0.609 c 0,3.553 -1.404,6.472 -3.849,8.009"
             style="fill:#848485;fill-opacity:1;fill-rule:nonzero;stroke:none"
             id="path26"
             inkscape:connector-curvature="0" /></g></g></g></g></svg>