<?xml version="1.0" encoding="UTF-8" standalone="no"?>
<!-- Created with Inkscape (http://www.inkscape.org/) -->

<svg
   xmlns:dc="http://purl.org/dc/elements/1.1/"
   xmlns:cc="http://creativecommons.org/ns#"
   xmlns:rdf="http://www.w3.org/1999/02/22-rdf-syntax-ns#"
   xmlns:svg="http://www.w3.org/2000/svg"
   xmlns="http://www.w3.org/2000/svg"
   xmlns:sodipodi="http://sodipodi.sourceforge.net/DTD/sodipodi-0.dtd"
   xmlns:inkscape="http://www.inkscape.org/namespaces/inkscape"
   version="1.1"
   id="svg2"
   xml:space="preserve"
   width="2590.7866"
   height="854.66534"
   viewBox="0 0 2590.7866 854.66534"
   sodipodi:docname="smallKomodoImg.svg"
   inkscape:version="0.92.3 (2405546, 2018-03-11)"><metadata
     id="metadata8"><rdf:RDF><cc:Work
         rdf:about=""><dc:format>image/svg+xml</dc:format><dc:type
           rdf:resource="http://purl.org/dc/dcmitype/StillImage" /><dc:title></dc:title></cc:Work></rdf:RDF></metadata><defs
     id="defs6"><clipPath
       clipPathUnits="userSpaceOnUse"
       id="clipPath22"><path
         d="M 0,640.999 H 1943.086 V 0 H 0 Z"
         id="path20"
         inkscape:connector-curvature="0" /></clipPath></defs><sodipodi:namedview
     pagecolor="#ffffff"
     bordercolor="#666666"
     borderopacity="1"
     objecttolerance="10"
     gridtolerance="10"
     guidetolerance="10"
     inkscape:pageopacity="0"
     inkscape:pageshadow="2"
     inkscape:window-width="640"
     inkscape:window-height="480"
     id="namedview4"
     showgrid="false"
     inkscape:zoom="0.18218405"
     inkscape:cx="1295.3933"
     inkscape:cy="427.33267"
     inkscape:window-x="0"
     inkscape:window-y="0"
     inkscape:window-maximized="0"
     inkscape:current-layer="g10" /><g
     id="g10"
     inkscape:groupmode="layer"
     inkscape:label="Vector Smart Object1"
     transform="matrix(1.3333333,0,0,-1.3333333,0,854.66533)"><g
       id="g12"
       transform="translate(500.3916,460.166)"><path
         d="M 0,0 H 35.4 V -102.299 L 131.4,0 h 45 l -84.299,-91.799 85.5,-117.9 h -42 L 66,-117.9 l -30.6,-33 v -58.799 H 0 Z"
         style="fill:#6dbe44;fill-opacity:1;fill-rule:nonzero;stroke:none"
         id="path14"
         inkscape:connector-curvature="0" /></g><g
       id="g16"><g
         id="g18"
         clip-path="url(#clipPath22)"><g
           id="g24"
           transform="translate(851.8437,410.666)"><path
             d="m 0,0 c -14.302,14.799 -31.852,22.201 -52.65,22.201 -20.803,0 -38.354,-7.402 -52.651,-22.201 -14.301,-14.803 -21.449,-32.752 -21.449,-53.85 0,-21.103 7.148,-39.05 21.449,-53.849 14.297,-14.803 31.848,-22.201 52.651,-22.201 20.798,0 38.348,7.398 52.65,22.201 C 14.297,-92.9 21.449,-74.953 21.449,-53.85 21.449,-32.752 14.297,-14.803 0,0 m 25.949,-131.25 c -21.201,-20.699 -47.399,-31.049 -78.599,-31.049 -31.201,0 -57.404,10.35 -78.6,31.049 -21.202,20.701 -31.801,46.5 -31.801,77.4 0,30.901 10.599,56.7 31.801,77.401 21.196,20.699 47.399,31.049 78.6,31.049 31.2,0 57.398,-10.35 78.599,-31.049 21.197,-20.701 31.801,-46.5 31.801,-77.401 0,-30.9 -10.604,-56.699 -31.801,-77.4"
             style="fill:#6dbe44;fill-opacity:1;fill-rule:nonzero;stroke:none"
             id="path26"
             inkscape:connector-curvature="0" /></g><g
           id="g28"
           transform="translate(989.6924,250.4668)"><path
             d="M 0,0 H -35.4 V 209.699 H 19.8 L 83.1,78 146.4,209.699 h 54.9 V 0 H 165.9 V 163.799 L 92.7,18.299 H 72.9 L 0,163.799 Z"
             style="fill:#6dbe44;fill-opacity:1;fill-rule:nonzero;stroke:none"
             id="path30"
             inkscape:connector-curvature="0" /></g><g
           id="g32"
           transform="translate(1398.7383,410.666)"><path
             d="m 0,0 c -14.303,14.799 -31.852,22.201 -52.65,22.201 -20.803,0 -38.354,-7.402 -52.651,-22.201 -14.301,-14.803 -21.449,-32.752 -21.449,-53.85 0,-21.103 7.148,-39.05 21.449,-53.849 14.297,-14.803 31.848,-22.201 52.651,-22.201 20.798,0 38.347,7.398 52.65,22.201 C 14.297,-92.9 21.449,-74.953 21.449,-53.85 21.449,-32.752 14.297,-14.803 0,0 m 25.949,-131.25 c -21.201,-20.699 -47.4,-31.049 -78.599,-31.049 -31.202,0 -57.405,10.35 -78.6,31.049 -21.203,20.701 -31.801,46.5 -31.801,77.4 0,30.901 10.598,56.7 31.801,77.401 21.195,20.699 47.398,31.049 78.6,31.049 31.199,0 57.398,-10.35 78.599,-31.049 21.197,-20.701 31.801,-46.5 31.801,-77.401 0,-30.9 -10.604,-56.699 -31.801,-77.4"
             style="fill:#6dbe44;fill-opacity:1;fill-rule:nonzero;stroke:none"
             id="path34"
             inkscape:connector-curvature="0" /></g><g
           id="g36"
           transform="translate(1654.4863,355.4668)"><path
             d="m 0,0 c 0,48 -27.502,72 -82.5,72 h -35.4 V -71.701 h 39.3 c 25.397,0 44.85,6.047 58.35,18.15 C -6.75,-41.451 0,-23.602 0,0 M 5.4,77.25 C 25.598,58.949 35.699,33.496 35.699,0.9 c 0,-32.601 -9.801,-58.402 -29.398,-77.4 -19.604,-19.004 -49.604,-28.5 -90,-28.5 h -69.602 v 209.699 h 72 c 37.6,0 66.498,-9.15 86.701,-27.449"
             style="fill:#6dbe44;fill-opacity:1;fill-rule:nonzero;stroke:none"
             id="path38"
             inkscape:connector-curvature="0" /></g><g
           id="g40"
           transform="translate(1885.3359,410.666)"><path
             d="m 0,0 c -14.301,14.799 -31.852,22.201 -52.65,22.201 -20.803,0 -38.354,-7.402 -52.651,-22.201 -14.301,-14.803 -21.449,-32.752 -21.449,-53.85 0,-21.103 7.148,-39.05 21.449,-53.849 14.297,-14.803 31.848,-22.201 52.651,-22.201 20.798,0 38.349,7.398 52.65,22.201 C 14.297,-92.9 21.449,-74.953 21.449,-53.85 21.449,-32.752 14.297,-14.803 0,0 m 25.949,-131.25 c -21.201,-20.699 -47.398,-31.049 -78.599,-31.049 -31.2,0 -57.403,10.35 -78.6,31.049 -21.201,20.701 -31.801,46.5 -31.801,77.4 0,30.901 10.6,56.7 31.801,77.401 21.197,20.699 47.4,31.049 78.6,31.049 31.201,0 57.398,-10.35 78.599,-31.049 21.197,-20.701 31.801,-46.5 31.801,-77.401 0,-30.9 -10.604,-56.699 -31.801,-77.4"
             style="fill:#6dbe44;fill-opacity:1;fill-rule:nonzero;stroke:none"
             id="path42"
             inkscape:connector-curvature="0" /></g><g
           id="g44"
           transform="translate(989.7861,58.1201)"><path
             d="m 0,0 c -11.622,0 -20.618,3.576 -26.99,10.73 -6.372,7.153 -9.558,17.273 -9.558,30.359 0,13.428 3.234,23.804 9.705,31.128 6.469,7.324 15.685,10.986 27.649,10.986 3.856,0 7.714,-0.415 11.572,-1.245 3.856,-0.831 6.885,-1.807 9.082,-2.93 L 17.725,68.701 c -2.686,1.073 -5.616,1.965 -8.789,2.674 -3.175,0.707 -5.982,1.062 -8.423,1.062 -16.309,0 -24.463,-10.401 -24.463,-31.202 0,-9.863 1.989,-17.431 5.969,-22.705 3.979,-5.273 9.875,-7.91 17.688,-7.91 6.689,0 13.55,1.44 20.581,4.321 V 4.175 C 14.916,1.392 8.154,0 0,0"
             style="fill:#4f8e40;fill-opacity:1;fill-rule:nonzero;stroke:none"
             id="path46"
             inkscape:connector-curvature="0" /></g><g
           id="g48"
           transform="translate(1091.5488,59.585)"><path
             d="m 0,0 v 51.929 c 0,6.543 -1.49,11.425 -4.468,14.648 -2.979,3.223 -7.642,4.834 -13.989,4.834 -8.448,0 -14.612,-2.296 -18.494,-6.885 -3.882,-4.589 -5.822,-12.11 -5.822,-22.558 V 0 h -12.159 v 113.965 h 12.159 V 79.468 c 0,-4.151 -0.196,-7.593 -0.586,-10.327 h 0.732 c 2.392,3.856 5.797,6.896 10.217,9.119 4.419,2.22 9.46,3.332 15.125,3.332 9.814,0 17.175,-2.332 22.082,-6.994 4.908,-4.664 7.361,-12.075 7.361,-22.23 L 12.158,0 Z"
             style="fill:#4f8e40;fill-opacity:1;fill-rule:nonzero;stroke:none"
             id="path50"
             inkscape:connector-curvature="0" /></g><g
           id="g52"
           transform="translate(1166.7979,131.1426)"><path
             d="m 0,0 c -6.445,0 -11.585,-2.1 -15.417,-6.299 -3.834,-4.2 -6.092,-10.01 -6.775,-17.431 h 41.967 c 0,7.665 -1.71,13.537 -5.127,17.614 C 11.23,-2.039 6.347,0 0,0 m 3.296,-73.022 c -11.865,0 -21.229,3.613 -28.088,10.839 -6.861,7.226 -10.291,17.26 -10.291,30.103 0,12.938 3.186,23.218 9.558,30.835 6.372,7.617 14.929,11.426 25.671,11.426 10.059,0 18.018,-3.309 23.877,-9.924 5.86,-6.617 8.79,-15.345 8.79,-26.185 v -7.69 h -55.298 c 0.243,-9.424 2.624,-16.578 7.141,-21.46 4.515,-4.883 10.876,-7.324 19.079,-7.324 8.643,0 17.187,1.805 25.635,5.42 v -10.84 c -4.297,-1.857 -8.362,-3.187 -12.195,-3.991 -3.834,-0.807 -8.459,-1.209 -13.879,-1.209"
             style="fill:#4f8e40;fill-opacity:1;fill-rule:nonzero;stroke:none"
             id="path54"
             inkscape:connector-curvature="0" /></g><g
           id="g56"
           transform="translate(1279.6201,81.4844)"><path
             d="m 0,0 c 0,-7.471 -2.783,-13.232 -8.35,-17.285 -5.566,-4.054 -13.379,-6.079 -23.437,-6.079 -10.646,0 -18.946,1.684 -24.902,5.053 v 11.28 c 3.856,-1.953 7.994,-3.491 12.414,-4.615 4.419,-1.124 8.679,-1.684 12.781,-1.684 6.347,0 11.23,1.013 14.648,3.04 3.417,2.025 5.127,5.114 5.127,9.265 0,3.124 -1.355,5.797 -4.065,8.02 -2.71,2.221 -7.996,4.845 -15.857,7.873 -7.47,2.783 -12.78,5.212 -15.93,7.287 -3.149,2.075 -5.493,4.432 -7.031,7.069 -1.538,2.636 -2.307,5.786 -2.307,9.448 0,6.543 2.66,11.706 7.983,15.491 5.322,3.783 12.622,5.676 21.9,5.676 8.642,0 17.089,-1.758 25.341,-5.274 l -4.321,-9.887 c -8.057,3.32 -15.357,4.98 -21.899,4.98 -5.762,0 -10.108,-0.904 -13.037,-2.71 -2.93,-1.806 -4.395,-4.297 -4.395,-7.47 0,-2.15 0.549,-3.981 1.648,-5.494 1.099,-1.513 2.868,-2.955 5.31,-4.321 2.441,-1.367 7.129,-3.345 14.063,-5.933 9.521,-3.467 15.954,-6.958 19.299,-10.473 C -1.673,9.741 0,5.321 0,0"
             style="fill:#4f8e40;fill-opacity:1;fill-rule:nonzero;stroke:none"
             id="path58"
             inkscape:connector-curvature="0" /></g><g
           id="g60"
           transform="translate(1358.6777,81.4844)"><path
             d="m 0,0 c 0,-7.471 -2.783,-13.232 -8.35,-17.285 -5.566,-4.054 -13.379,-6.079 -23.437,-6.079 -10.646,0 -18.946,1.684 -24.902,5.053 v 11.28 c 3.856,-1.953 7.994,-3.491 12.414,-4.615 4.419,-1.124 8.679,-1.684 12.781,-1.684 6.347,0 11.23,1.013 14.648,3.04 3.417,2.025 5.127,5.114 5.127,9.265 0,3.124 -1.355,5.797 -4.065,8.02 -2.71,2.221 -7.996,4.845 -15.857,7.873 -7.47,2.783 -12.78,5.212 -15.93,7.287 -3.149,2.075 -5.493,4.432 -7.031,7.069 -1.538,2.636 -2.307,5.786 -2.307,9.448 0,6.543 2.66,11.706 7.983,15.491 5.322,3.783 12.622,5.676 21.9,5.676 8.642,0 17.089,-1.758 25.341,-5.274 l -4.321,-9.887 c -8.057,3.32 -15.357,4.98 -21.899,4.98 -5.762,0 -10.108,-0.904 -13.037,-2.71 -2.93,-1.806 -4.395,-4.297 -4.395,-7.47 0,-2.15 0.549,-3.981 1.648,-5.494 1.099,-1.513 2.868,-2.955 5.31,-4.321 2.441,-1.367 7.129,-3.345 14.063,-5.933 9.521,-3.467 15.954,-6.958 19.299,-10.473 C -1.673,9.741 0,5.321 0,0"
             style="fill:#4f8e40;fill-opacity:1;fill-rule:nonzero;stroke:none"
             id="path62"
             inkscape:connector-curvature="0" /></g><g
           id="g64"
           transform="translate(1463.0332,131.1426)"><path
             d="m 0,0 c -6.445,0 -11.585,-2.1 -15.417,-6.299 -3.834,-4.2 -6.092,-10.01 -6.775,-17.431 h 41.967 c 0,7.665 -1.71,13.537 -5.127,17.614 C 11.23,-2.039 6.347,0 0,0 m 3.296,-73.022 c -11.865,0 -21.229,3.613 -28.088,10.839 -6.861,7.226 -10.291,17.26 -10.291,30.103 0,12.938 3.186,23.218 9.558,30.835 6.372,7.617 14.929,11.426 25.671,11.426 10.059,0 18.018,-3.309 23.877,-9.924 5.86,-6.617 8.79,-15.345 8.79,-26.185 v -7.69 h -55.298 c 0.243,-9.424 2.624,-16.578 7.141,-21.46 4.515,-4.883 10.876,-7.324 19.079,-7.324 8.643,0 17.187,1.805 25.635,5.42 v -10.84 c -4.297,-1.857 -8.362,-3.187 -12.195,-3.991 -3.834,-0.807 -8.459,-1.209 -13.879,-1.209"
             style="fill:#4f8e40;fill-opacity:1;fill-rule:nonzero;stroke:none"
             id="path66"
             inkscape:connector-curvature="0" /></g><g
           id="g68"
           transform="translate(1579.0049,59.585)"><path
             d="m 0,0 v 51.929 c 0,6.543 -1.49,11.425 -4.468,14.648 -2.979,3.223 -7.642,4.834 -13.989,4.834 -8.399,0 -14.551,-2.27 -18.457,-6.811 -3.907,-4.541 -5.859,-12.037 -5.859,-22.486 V 0 h -12.159 v 80.273 h 9.888 l 1.978,-10.986 h 0.586 c 2.49,3.955 5.98,7.019 10.473,9.192 4.492,2.172 9.496,3.259 15.015,3.259 9.668,0 16.943,-2.332 21.826,-6.994 4.882,-4.664 7.324,-12.122 7.324,-22.376 L 12.158,0 Z"
             style="fill:#4f8e40;fill-opacity:1;fill-rule:nonzero;stroke:none"
             id="path70"
             inkscape:connector-curvature="0" /></g><g
           id="g72"
           transform="translate(1631.915,114.1504)"><path
             d="m 0,0 c 0,-5.615 1.586,-9.863 4.761,-12.744 3.173,-2.882 7.592,-4.321 13.257,-4.321 11.865,0 17.797,5.76 17.797,17.285 0,12.059 -6.005,18.091 -18.017,18.091 C 12.085,18.311 7.69,16.772 4.614,13.696 1.538,10.62 0,6.054 0,0 m -6.592,-68.042 c 0,-4.346 1.831,-7.642 5.493,-9.888 3.662,-2.245 8.911,-3.369 15.747,-3.369 10.205,0 17.762,1.527 22.669,4.577 4.907,3.053 7.361,7.191 7.361,12.415 0,4.347 -1.344,7.361 -4.029,9.046 -2.686,1.684 -7.739,2.527 -15.161,2.527 H 10.913 c -5.518,0 -9.814,-1.319 -12.891,-3.955 -3.076,-2.637 -4.614,-6.42 -4.614,-11.353 m 64.014,93.75 v -7.69 L 42.554,16.26 c 1.366,-1.71 2.587,-3.944 3.662,-6.702 1.073,-2.759 1.611,-5.871 1.611,-9.338 0,-7.863 -2.686,-14.136 -8.056,-18.824 -5.373,-4.687 -12.745,-7.031 -22.12,-7.031 -2.393,0 -4.639,0.195 -6.738,0.586 -5.176,-2.735 -7.764,-6.178 -7.764,-10.327 0,-2.197 0.903,-3.821 2.71,-4.871 1.806,-1.05 4.908,-1.574 9.302,-1.574 H 29.37 c 8.691,0 15.368,-1.831 20.032,-5.493 4.662,-3.663 6.994,-8.984 6.994,-15.967 0,-8.887 -3.564,-15.661 -10.693,-20.325 -7.13,-4.663 -17.53,-6.995 -31.201,-6.995 -10.499,0 -18.592,1.954 -24.28,5.86 -5.689,3.907 -8.533,9.424 -8.533,16.553 0,4.882 1.562,9.107 4.688,12.67 3.124,3.564 7.519,5.981 13.184,7.251 -2.051,0.927 -3.772,2.369 -5.164,4.322 -1.392,1.952 -2.087,4.222 -2.087,6.811 0,2.93 0.78,5.493 2.343,7.691 1.562,2.197 4.029,4.321 7.398,6.372 -4.151,1.709 -7.533,4.614 -10.144,8.716 -2.613,4.101 -3.919,8.789 -3.919,14.062 0,8.789 2.637,15.564 7.91,20.325 5.274,4.76 12.745,7.141 22.413,7.141 4.198,0 7.983,-0.488 11.352,-1.465 z"
             style="fill:#4f8e40;fill-opacity:1;fill-rule:nonzero;stroke:none"
             id="path74"
             inkscape:connector-curvature="0" /></g><path
           d="m 1725.475,59.585 h -12.158 v 80.273 h 12.158 z m -13.184,102.026 c 0,2.784 0.683,4.822 2.051,6.117 1.366,1.293 3.076,1.94 5.127,1.94 1.952,0 3.636,-0.659 5.053,-1.978 1.416,-1.318 2.124,-3.344 2.124,-6.079 0,-2.735 -0.708,-4.773 -2.124,-6.116 -1.417,-1.343 -3.101,-2.014 -5.053,-2.014 -2.051,0 -3.761,0.671 -5.127,2.014 -1.368,1.343 -2.051,3.381 -2.051,6.116"
           style="fill:#4f8e40;fill-opacity:1;fill-rule:nonzero;stroke:none"
           id="path76"
           inkscape:connector-curvature="0" /><g
           id="g78"
           transform="translate(1813.6875,59.585)"><path
             d="m 0,0 v 51.929 c 0,6.543 -1.49,11.425 -4.468,14.648 -2.979,3.223 -7.642,4.834 -13.989,4.834 -8.399,0 -14.551,-2.27 -18.457,-6.811 -3.907,-4.541 -5.859,-12.037 -5.859,-22.486 V 0 h -12.159 v 80.273 h 9.888 l 1.978,-10.986 h 0.586 c 2.49,3.955 5.98,7.019 10.473,9.192 4.492,2.172 9.496,3.259 15.015,3.259 9.668,0 16.943,-2.332 21.826,-6.994 4.882,-4.664 7.324,-12.122 7.324,-22.376 L 12.158,0 Z"
             style="fill:#4f8e40;fill-opacity:1;fill-rule:nonzero;stroke:none"
             id="path80"
             inkscape:connector-curvature="0" /></g><g
           id="g82"
           transform="translate(1888.9365,131.1426)"><path
             d="m 0,0 c -6.445,0 -11.585,-2.1 -15.417,-6.299 -3.834,-4.2 -6.092,-10.01 -6.775,-17.431 h 41.967 c 0,7.665 -1.71,13.537 -5.127,17.614 C 11.23,-2.039 6.347,0 0,0 m 3.296,-73.022 c -11.865,0 -21.229,3.613 -28.088,10.839 -6.861,7.226 -10.291,17.26 -10.291,30.103 0,12.938 3.186,23.218 9.558,30.835 6.372,7.617 14.929,11.426 25.671,11.426 10.059,0 18.018,-3.309 23.877,-9.924 5.86,-6.617 8.79,-15.345 8.79,-26.185 v -7.69 h -55.298 c 0.243,-9.424 2.624,-16.578 7.141,-21.46 4.515,-4.883 10.876,-7.324 19.079,-7.324 8.643,0 17.187,1.805 25.635,5.42 v -10.84 c -4.297,-1.857 -8.362,-3.187 -12.195,-3.991 -3.834,-0.807 -8.459,-1.209 -13.879,-1.209"
             style="fill:#4f8e40;fill-opacity:1;fill-rule:nonzero;stroke:none"
             id="path84"
             inkscape:connector-curvature="0" /></g><g
           id="g86"
           transform="translate(611.2617,66.4775)"><path
             d="M 0,0 -70.688,-6.383 V 38.996 L 0,38.996 Z"
             style="fill:#4f8e40;fill-opacity:1;fill-rule:nonzero;stroke:none"
             id="path88"
             inkscape:connector-curvature="0" /></g><g
           id="g90"
           transform="translate(577.9727,150.1543)"><path
             d="m 0,0 c -10.49,7.71 35.732,-69.457 35.732,-69.457 0,0 11.242,-5.012 21.411,-16.112 35.813,-2.712 59.76,-2.071 96.897,-10.35 73.796,-16.453 103.792,-61.285 113.85,-53.289 5.435,4.317 -33.271,74.341 -110.738,105.911 C 92.139,-16.809 22.736,-16.685 0,0"
             style="fill:#4f8e40;fill-opacity:1;fill-rule:nonzero;stroke:none"
             id="path92"
             inkscape:connector-curvature="0" /></g><g
           id="g94"
           transform="translate(674.4463,65.3311)"><path
             d="m 0,0 c -7.676,9.09 -51.072,25.229 -51.072,25.229 0,0 -14.044,16.961 -19.53,28.768 -3.807,8.194 -7.098,27.225 -13.634,33.468 -11.118,10.62 -40.003,9.255 -53.913,15.811 -0.29,0.136 -0.682,0.208 -1.157,0.232 0.077,0.038 0.155,0.07 0.227,0.1 -40.439,24.131 -83.124,56.532 -112.877,66.236 -40.6,13.232 -168.226,26.532 -168.226,26.532 l -0.606,-231.385 298.172,31.444 c 0,0 19.938,7.152 19.938,20.123 0,10.174 -12.757,20.82 -12.757,20.82 0,0 5.59,-1.174 12.377,-4.871 14.473,-7.886 16.187,-22.535 16.187,-22.535 0,0 0.508,-19.447 2.167,-22.545 1.662,-3.098 3.907,-14.404 8.09,-14.652 6.87,-0.407 12.956,18.134 19.846,18.015 13.409,-0.234 33.651,-23.85 40.275,-20.259 3.146,1.704 -0.625,13.724 -0.625,13.724 l 21.493,-1.604 c 0,0 1.24,10.698 -4.375,17.349"
             style="fill:#589f44;fill-opacity:1;fill-rule:nonzero;stroke:none"
             id="path96"
             inkscape:connector-curvature="0" /></g><g
           id="g98"
           transform="translate(410.7876,44.0566)"><path
             d="m 0,0 c 0,0 -162.001,-32.146 -192.585,-3.992 -25.545,23.515 26.875,129.143 26.875,129.143 H 0 Z"
             style="fill:#589f44;fill-opacity:1;fill-rule:nonzero;stroke:none"
             id="path100"
             inkscape:connector-curvature="0" /></g><g
           id="g102"
           transform="translate(498.6328,48.1064)"><path
             d="m 0,0 c -11.245,11.523 -57.277,29.481 -57.277,29.481 0.07,1.244 0.128,2.033 0.128,2.033 0,0 25.558,62.136 17.17,81.08 -1.417,3.195 -5.258,6.56 -10.154,9.788 -8.093,6.726 -20.272,16.062 -33.972,26.276 0.049,0.234 0.099,0.468 0.15,0.708 h -1.1 c -34.155,25.438 -77.285,56.024 -90.133,65.265 -30.411,21.876 -38.402,53.874 -32.998,88.58 8.371,53.727 84.778,123.605 108.831,166.645 7.162,12.816 19.496,61.076 -37.603,45.105 -125.997,-35.246 -199.594,-140.404 -216.181,-190.639 -17.595,-53.288 -32.469,-160.735 -32.469,-160.735 -6.566,-4.805 -13.07,-9.598 -19.278,-14.221 h -1.1 c 0.051,-0.24 0.101,-0.474 0.15,-0.708 -13.699,-10.214 -25.881,-19.552 -33.974,-26.277 -4.894,-3.228 -8.734,-6.593 -10.151,-9.787 -8.389,-18.944 17.169,-81.08 17.169,-81.08 0,0 0.059,-0.789 0.129,-2.033 0,0 -46.033,-17.958 -57.277,-29.481 -10.328,-10.589 -8.581,-24.743 -8.581,-24.743 l 26.422,5.257 c 0,0 -8.46,-28.381 -2.06,-27.674 15.31,1.666 47.278,33.177 64.346,29.376 9.625,-2.145 16.453,-29.21 26.31,-29.376 5.99,-0.102 10.435,15.806 13.131,20.043 2.196,3.44 -11.141,32.765 -14.428,40.118 0.679,0.189 5.344,32.803 6.158,38.53 3.17,-39.764 58.449,-71.425 126.18,-71.425 2.515,0 5.013,0.045 7.492,0.131 2.478,-0.086 4.976,-0.131 7.491,-0.131 67.731,0 123.01,31.661 126.18,71.425 0.814,-5.727 5.479,-38.341 6.158,-38.53 -3.286,-7.353 -16.624,-36.678 -14.428,-40.118 2.696,-4.237 7.142,-20.145 13.131,-20.043 9.858,0.166 16.685,27.231 26.31,29.376 17.068,3.801 49.036,-27.71 64.347,-29.376 6.399,-0.707 -2.061,27.674 -2.061,27.674 l 26.423,-5.257 c 0,0 1.746,14.154 -8.581,24.743"
             style="fill:#61af45;fill-opacity:1;fill-rule:nonzero;stroke:none"
             id="path104"
             inkscape:connector-curvature="0" /></g><g
           id="g106"
           transform="translate(94.7446,187.6729)"><path
             d="M 0,0 C -0.002,0.01 -0.005,0.021 -0.007,0.032 -0.004,0.019 -0.003,0.012 0,0"
             style="fill:#6dbe44;fill-opacity:1;fill-rule:nonzero;stroke:none"
             id="path108"
             inkscape:connector-curvature="0" /></g><g
           id="g110"
           transform="translate(94.3691,189.4062)"><path
             d="M 0,0 C -0.007,0.035 -0.016,0.072 -0.023,0.108 -0.016,0.072 -0.007,0.035 0,0"
             style="fill:#6dbe44;fill-opacity:1;fill-rule:nonzero;stroke:none"
             id="path112"
             inkscape:connector-curvature="0" /></g><g
           id="g114"
           transform="translate(94.6821,187.9609)"><path
             d="M 0,0 C -0.008,0.037 -0.017,0.077 -0.026,0.119 -0.017,0.074 -0.008,0.039 0,0"
             style="fill:#6dbe44;fill-opacity:1;fill-rule:nonzero;stroke:none"
             id="path116"
             inkscape:connector-curvature="0" /></g><g
           id="g118"
           transform="translate(94.7612,187.5957)"><path
             d="M 0,0 C -0.001,0.005 -0.002,0.01 -0.003,0.016 -0.001,0.007 -0.001,0.006 0,0"
             style="fill:#6dbe44;fill-opacity:1;fill-rule:nonzero;stroke:none"
             id="path120"
             inkscape:connector-curvature="0" /></g><g
           id="g122"
           transform="translate(399.3574,565.1592)"><path
             d="m 0,0 c -1.018,1.069 -4.506,2.254 -4.506,2.254 l -2.423,4.56 c 0,0 -27.768,20.392 -38.554,19.379 -24.652,-2.306 -65.243,-27.477 -95.52,-33.428 -7.683,-1.511 -25.505,3.957 -37.742,-3.63 -20.79,-12.894 -83.114,-74.412 -106.452,-133.859 -16.249,-41.411 -38.249,-113.023 -30.565,-175.305 1.252,-10.132 8.287,-43.921 11.162,-57.519 0,0 79.686,-61.259 58.422,9.861 -0.016,0.052 0.023,-0.107 0.034,-0.161 -6.807,31.591 -15.112,81.392 -2.313,127.717 33.871,122.624 94.842,104.067 129.719,128.716 34.629,24.481 80.48,90.993 108.322,95.221 21.733,3.299 10.336,-31.002 10.336,-31.002 0,0 17.717,28.682 0.08,47.196"
             style="fill:#6dbe44;fill-opacity:1;fill-rule:nonzero;stroke:none"
             id="path124"
             inkscape:connector-curvature="0" /></g><g
           id="g126"
           transform="translate(253.6143,537.7803)"><path
             d="m 0,0 c -14.875,11.357 -24.412,1.605 -29.678,-10.837 6.1,4.751 10.543,1.942 15.046,1.168 C -10.136,-10.438 -9.126,2.242 0,0"
             style="fill:#231f20;fill-opacity:1;fill-rule:nonzero;stroke:none"
             id="path128"
             inkscape:connector-curvature="0" /></g><g
           id="g130"
           transform="translate(253.6143,537.7803)"><path
             d="m 0,0 c -14.875,11.357 -24.412,1.605 -29.678,-10.837 6.1,4.751 10.543,1.942 15.046,1.168 C -10.136,-10.438 -9.126,2.242 0,0"
             style="fill:#262726;fill-opacity:1;fill-rule:nonzero;stroke:none"
             id="path132"
             inkscape:connector-curvature="0" /></g><g
           id="g134"
           transform="translate(26.5664,28.0488)"><path
             d="M 0,0 C 0,0 2.474,8.519 1.123,9.993 -4.387,15.997 -26.455,-4.686 -26.455,-4.686"
             style="fill:#4f8e40;fill-opacity:1;fill-rule:nonzero;stroke:none"
             id="path136"
             inkscape:connector-curvature="0" /></g><g
           id="g138"
           transform="translate(480.6865,28.0488)"><path
             d="M 0,0 C 0,0 -2.474,8.519 -1.123,9.993 4.387,15.997 26.455,-4.686 26.455,-4.686"
             style="fill:#4f8e40;fill-opacity:1;fill-rule:nonzero;stroke:none"
             id="path140"
             inkscape:connector-curvature="0" /></g><g
           id="g142"
           transform="translate(657.332,49.5625)"><path
             d="M 0,0 C 0,0 -1.979,6.816 -0.898,7.996 3.511,12.8 21.489,-1.58 21.489,-1.58"
             style="fill:#4f8e40;fill-opacity:1;fill-rule:nonzero;stroke:none"
             id="path144"
             inkscape:connector-curvature="0" /></g><g
           id="g146"
           transform="translate(370.0562,562.667)"><path
             d="m 0,0 c -27.022,-12.062 -93.882,-82.865 -84.837,-79.614 11.871,4.265 48.627,53.876 83.301,73.45 C 15.715,3.574 24.741,4.002 29.32,2.578 29.32,2.578 22.727,10.145 0,0"
             style="fill:#262726;fill-opacity:1;fill-rule:nonzero;stroke:none"
             id="path148"
             inkscape:connector-curvature="0" /></g><g
           id="g150"
           transform="translate(427.0937,576.7656)"><path
             d="M 0,0 C 17.271,15.843 32.555,58.866 32.555,58.866 L 11.574,41.612 0.293,64.233 c 0,0 3.765,-35.904 -8.654,-56.137 -9.449,-15.398 -30.721,-19.492 -30.721,-19.492 l -0.91,-0.591 C -28.658,-14.067 -9.888,-9.069 0,0"
             style="fill:#ee4753;fill-opacity:1;fill-rule:nonzero;stroke:none"
             id="path152"
             inkscape:connector-curvature="0" /></g></g></g></g></svg>