<?xml version="1.0" encoding="UTF-8" standalone="no"?>
<!-- Created with Inkscape (http://www.inkscape.org/) -->

<svg
   xmlns:dc="http://purl.org/dc/elements/1.1/"
   xmlns:cc="http://creativecommons.org/ns#"
   xmlns:rdf="http://www.w3.org/1999/02/22-rdf-syntax-ns#"
   xmlns:svg="http://www.w3.org/2000/svg"
   xmlns="http://www.w3.org/2000/svg"
   xmlns:sodipodi="http://sodipodi.sourceforge.net/DTD/sodipodi-0.dtd"
   xmlns:inkscape="http://www.inkscape.org/namespaces/inkscape"
   version="1.1"
   id="svg2"
   xml:space="preserve"
   width="49.333332"
   height="48"
   viewBox="0 0 49.333332 48"
   sodipodi:docname="tcecIcon.svg"
   inkscape:version="0.92.3 (2405546, 2018-03-11)"><metadata
     id="metadata8"><rdf:RDF><cc:Work
         rdf:about=""><dc:format>image/svg+xml</dc:format><dc:type
           rdf:resource="http://purl.org/dc/dcmitype/StillImage" /><dc:title></dc:title></cc:Work></rdf:RDF></metadata><defs
     id="defs6"><clipPath
       clipPathUnits="userSpaceOnUse"
       id="clipPath18"><path
         d="M 0,36 H 37 V 0 H 0 Z"
         id="path16"
         inkscape:connector-curvature="0" /></clipPath></defs><sodipodi:namedview
     pagecolor="#ffffff"
     bordercolor="#666666"
     borderopacity="1"
     objecttolerance="10"
     gridtolerance="10"
     guidetolerance="10"
     inkscape:pageopacity="0"
     inkscape:pageshadow="2"
     inkscape:window-width="640"
     inkscape:window-height="480"
     id="namedview4"
     showgrid="false"
     inkscape:zoom="4.9166667"
     inkscape:cx="24.666666"
     inkscape:cy="24"
     inkscape:window-x="0"
     inkscape:window-y="0"
     inkscape:window-maximized="0"
     inkscape:current-layer="g10" /><g
     id="g10"
     inkscape:groupmode="layer"
     inkscape:label="Vector Smart Object21"
     transform="matrix(1.3333333,0,0,-1.3333333,0,48)"><g
       id="g12"><g
         id="g14"
         clip-path="url(#clipPath18)"><g
           id="g20"
           transform="translate(5,33)"><path
             d="m 0,0 c 0,-1.104 -0.896,-2 -2,-2 h -1 c -1.104,0 -2,0.896 -2,2 v 1 c 0,1.104 0.896,2 2,2 h 1 C -0.896,3 0,2.104 0,1 Z"
             style="fill:#848485;fill-opacity:1;fill-rule:nonzero;stroke:none"
             id="path22"
             inkscape:connector-curvature="0" /></g><g
           id="g24"
           transform="translate(12,18)"><path
             d="m 0,0 c 0,-1.104 -0.896,0 -2,0 h -1 c -1.104,0 -2,-1.104 -2,0 v 16 c 0,1.104 0.896,2 2,2 h 1 c 1.104,0 2,-0.896 2,-2 z"
             style="fill:#848485;fill-opacity:1;fill-rule:nonzero;stroke:none"
             id="path26"
             inkscape:connector-curvature="0" /></g><g
           id="g28"
           transform="translate(19,33)"><path
             d="m 0,0 c 0,-1.104 -0.896,-2 -2,-2 h -1 c -1.104,0 -2,0.896 -2,2 v 1 c 0,1.104 0.896,2 2,2 h 1 C -0.896,3 0,2.104 0,1 Z"
             style="fill:#848485;fill-opacity:1;fill-rule:nonzero;stroke:none"
             id="path30"
             inkscape:connector-curvature="0" /></g><g
           id="g32"
           transform="translate(16,19)"><path
             d="M 0,0 C 1.104,0 2,-0.896 2,-2 V -3 C 2,-4.104 1.104,-5 0,-5 h -14 c -1.104,0 -2,0.896 -2,2 v 1 c 0,1.104 0.896,2 2,2 z"
             style="fill:#848485;fill-opacity:1;fill-rule:nonzero;stroke:none"
             id="path34"
             inkscape:connector-curvature="0" /></g><g
           id="g36"
           transform="translate(16,5)"><path
             d="M 0,0 C 1.104,0 2,-0.896 2,-2 V -3 C 2,-4.104 1.104,-5 0,-5 h -14 c -1.104,0 -2,0.896 -2,2 v 1 c 0,1.104 0.896,2 2,2 z"
             style="fill:#848485;fill-opacity:1;fill-rule:nonzero;stroke:none"
             id="path38"
             inkscape:connector-curvature="0" /></g><g
           id="g40"
           transform="translate(9,12)"><path
             d="M 0,0 C 1.104,0 2,-0.896 2,-2 V -3 C 2,-4.104 1.104,-5 0,-5 h -7 c -1.104,0 -2,0.896 -2,2 v 1 c 0,1.104 0.896,2 2,2 z"
             style="fill:#848485;fill-opacity:1;fill-rule:nonzero;stroke:none"
             id="path42"
             inkscape:connector-curvature="0" /></g><g
           id="g44"
           transform="translate(28,13)"><path
             d="M 0,0 H 0.299 7.005 C 8.109,0 9,0.896 9,2 V 3 C 9,4.104 8.109,5 7.005,5 H -0.897 C -5.446,4.55 -9,0.667 -9,-4 c 0,-4.667 3.554,-8.504 8.103,-8.955 L 7.005,-13 C 8.109,-13 9,-12.104 9,-11 v 1 c 0,1.104 -0.891,2 -1.995,2 H 0.299 0 c -2.206,0 -4,1.794 -4,4 0,2.206 1.794,4 4,4"
             style="fill:#848485;fill-opacity:1;fill-rule:nonzero;stroke:none"
             id="path46"
             inkscape:connector-curvature="0" /></g><g
           id="g48"
           transform="translate(28,31)"><path
             d="M 0,0 H 0.299 7.005 C 8.109,0 9,0.896 9,2 V 3 C 9,4.104 8.109,5 7.005,5 L -0.897,4.955 C -5.446,4.504 -9,0.667 -9,-4 c 0,-4.667 3.554,-8.55 8.103,-9 H 7.005 C 8.109,-13 9,-12.104 9,-11 v 1 c 0,1.104 -0.891,2 -1.995,2 H 0.299 0 c -2.206,0 -4,1.794 -4,4 0,2.206 1.794,4 4,4"
             style="fill:#848485;fill-opacity:1;fill-rule:nonzero;stroke:none"
             id="path50"
             inkscape:connector-curvature="0" /></g></g></g></g></svg>